<svg xmlns="http://www.w3.org/2000/svg" viewBox="0 0 1600 720"><defs><linearGradient id="a" x2="0" y2="1"><stop stop-color="#173736"/><stop offset=".52" stop-color="#6d874d"/><stop offset="1" stop-color="#b66f3b"/></linearGradient></defs><rect width="1600" height="720" fill="url(#a)"/><path d="M0 460Q220 350 430 465t390-18 420 22 360-8v259H0Z" fill="#263c32"/><path d="M0 600q280-90 540 0t510-4 550 10v114H0z" fill="#13262b"/><g fill="#d96b3b" opacity=".9"><path d="M280 480l32-140 30 140zM365 490l27-108 29 108zM1115 480l36-148 35 148zM1200 490l28-112 30 112z"/></g><path d="M0 360q220-80 450-12t420-18 730-8" fill="none" stroke="#c4e6b4" stroke-width="12" opacity=".35"/><g fill="#d6b45e"><path d="M680 590l40-170 42 170zM800 590l42-170 41 170z"/></g></svg>
